<svg xmlns="http://www.w3.org/2000/svg" width="600" height="400" viewBox="0 0 600 400"><rect width="100%" height="100%" fill="#FFA500"/><path fill="#FFFFFF" d="M142.03 200.9h11.25q4.15 0 7.23-1.04t5.12-2.97q2.04-1.93 3.05-4.7 1.01-2.77 1.01-6.19 0-3.25-1.01-5.88t-3.02-4.48q-2.02-1.85-5.1-2.83-3.08-.98-7.28-.98h-11.25v29.07Zm-15.07-40.72h26.32q8.12 0 14.06 1.91 5.93 1.9 9.8 5.32 3.86 3.41 5.74 8.17 1.87 4.76 1.87 10.42 0 5.88-1.96 10.78-1.96 4.9-5.88 8.43-3.92 3.53-9.82 5.49-5.91 1.96-13.81 1.96h-11.25v28.5h-15.07v-80.98Zm97.5 66.14v-9.69q-5.99.28-10.08 1.04-4.09.75-6.55 1.93-2.47 1.18-3.53 2.74-1.07 1.57-1.07 3.42 0 3.64 2.16 5.21 2.16 1.57 5.63 1.57 4.25 0 7.36-1.54 3.11-1.54 6.08-4.68Zm-29.23-30.18-2.47-4.43q9.91-9.07 23.86-9.07 5.04 0 9.01 1.65 3.98 1.65 6.72 4.59 2.75 2.94 4.18 7.03 1.42 4.09 1.42 8.96v36.29h-6.27q-1.96 0-3.02-.59-1.07-.59-1.68-2.38l-1.23-4.14q-2.19 1.96-4.26 3.44-2.07 1.49-4.31 2.49-2.24 1.01-4.79 1.54-2.55.54-5.63.54-3.64 0-6.72-.98-3.08-.98-5.32-2.94t-3.47-4.88q-1.23-2.91-1.23-6.77 0-2.19.73-4.34.72-2.16 2.38-4.12 1.65-1.96 4.28-3.69 2.63-1.74 6.47-3.03 3.83-1.29 8.93-2.1t11.65-.98v-3.36q0-5.77-2.47-8.54-2.46-2.77-7.11-2.77-3.36 0-5.57.78-2.21.79-3.89 1.77-1.68.98-3.05 1.76-1.38.79-3.06.79-1.45 0-2.46-.76t-1.62-1.76Zm91.39-12.44h13.83v57.46h-8.46q-2.74 0-3.47-2.52l-.95-4.59q-3.53 3.58-7.78 5.79-4.26 2.22-10.03 2.22-4.7 0-8.31-1.6-3.62-1.6-6.08-4.51-2.46-2.91-3.72-6.91-1.26-4.01-1.26-8.82V183.7h13.83v36.52q0 5.26 2.43 8.14 2.44 2.89 7.31 2.89 3.59 0 6.72-1.6 3.14-1.59 5.94-4.39V183.7Zm65.69 6.22-3.14 4.98q-.56.9-1.18 1.26-.61.37-1.56.37-1.01 0-2.16-.56-1.15-.56-2.66-1.26-1.51-.7-3.44-1.26-1.94-.56-4.57-.56-4.09 0-6.41 1.73-2.32 1.74-2.32 4.54 0 1.85 1.2 3.11 1.2 1.26 3.19 2.21t4.51 1.71q2.52.75 5.12 1.65 2.61.9 5.13 2.04 2.52 1.15 4.51 2.92 1.98 1.76 3.19 4.22 1.2 2.47 1.2 5.94 0 4.14-1.48 7.64-1.49 3.5-4.4 6.05t-7.19 3.98q-4.29 1.43-9.89 1.43-2.97 0-5.79-.54-2.83-.53-5.44-1.48-2.6-.95-4.81-2.24-2.21-1.29-3.89-2.8l3.19-5.26q.61-.96 1.45-1.46t2.13-.5q1.29 0 2.44.72 1.15.73 2.66 1.57 1.51.84 3.55 1.57 2.05.73 5.18.73 2.47 0 4.23-.59 1.77-.59 2.91-1.54 1.15-.95 1.68-2.21.54-1.26.54-2.61 0-2.01-1.21-3.3-1.2-1.29-3.19-2.24-1.99-.95-4.54-1.71-2.54-.75-5.2-1.65-2.66-.9-5.21-2.1-2.55-1.2-4.54-3.05-1.99-1.85-3.19-4.54t-1.2-6.49q0-3.53 1.4-6.72 1.4-3.2 4.11-5.58 2.72-2.38 6.78-3.8 4.06-1.43 9.38-1.43 5.93 0 10.81 1.96 4.87 1.96 8.12 5.15Zm21.95 15.9h26.09q0-2.68-.75-5.06-.76-2.38-2.27-4.18-1.51-1.79-3.84-2.82-2.32-1.04-5.4-1.04-5.99 0-9.44 3.42-3.44 3.41-4.39 9.68Zm35.28 8.35h-35.56q.33 4.42 1.57 7.64 1.23 3.22 3.24 5.32 2.02 2.1 4.79 3.14 2.77 1.03 6.13 1.03t5.8-.78q2.44-.78 4.26-1.74 1.82-.95 3.19-1.73 1.37-.79 2.66-.79 1.73 0 2.57 1.29l3.98 5.04q-2.3 2.69-5.15 4.51-2.86 1.82-5.97 2.91-3.1 1.09-6.32 1.54-3.22.45-6.25.45-5.99 0-11.14-1.99t-8.96-5.88q-3.81-3.89-5.99-9.63-2.19-5.74-2.19-13.3 0-5.88 1.91-11.06 1.9-5.18 5.46-9.02 3.55-3.83 8.68-6.07 5.12-2.24 11.56-2.24 5.43 0 10.02 1.73 4.6 1.74 7.9 5.07 3.3 3.33 5.18 8.18 1.88 4.84 1.88 11.06 0 3.13-.68 4.23-.67 1.09-2.57 1.09Zm49.67 9.97v-25.76q-2.35-2.86-5.12-4.04-2.78-1.17-5.97-1.17-3.13 0-5.65 1.17-2.52 1.18-4.32 3.56-1.79 2.38-2.74 6.05-.95 3.67-.95 8.65 0 5.04.81 8.54.81 3.5 2.32 5.71 1.52 2.21 3.7 3.19t4.87.98q4.31 0 7.34-1.79 3.02-1.79 5.71-5.09Zm0-66.2h13.83v83.22h-8.45q-2.75 0-3.48-2.52l-1.17-5.54q-3.47 3.97-7.98 6.44-4.51 2.46-10.5 2.46-4.71 0-8.63-1.96-3.92-1.96-6.74-5.68-2.83-3.73-4.37-9.22-1.54-5.48-1.54-12.54 0-6.38 1.73-11.87 1.74-5.49 4.99-9.52 3.25-4.03 7.78-6.3 4.54-2.27 10.19-2.27 4.82 0 8.24 1.51 3.41 1.51 6.1 4.09v-30.3Z"/></svg>